<?xml version="1.0" encoding="UTF-8" standalone="no"?>
<svg
   xmlns:dc="http://purl.org/dc/elements/1.1/"
   xmlns:cc="http://creativecommons.org/ns#"
   xmlns:rdf="http://www.w3.org/1999/02/22-rdf-syntax-ns#"
   xmlns:svg="http://www.w3.org/2000/svg"
   xmlns="http://www.w3.org/2000/svg"
   xmlns:sodipodi="http://sodipodi.sourceforge.net/DTD/sodipodi-0.dtd"
   xmlns:inkscape="http://www.inkscape.org/namespaces/inkscape"
   version="1.1"
   id="Layer_1"
   x="0px"
   y="0px"
   width="100.0px"
   height="100px"
   viewBox="0 0 512 512"
   enable-background="new 0 0 512 512"
   xml:space="preserve"
   inkscape:version="0.48.4 r9939"
   sodipodi:docname="icon_32088.svg"
   inkscape:export-filename="/media/xisberto/xisberto/android/LedAssist/app/src/main/led-on.png"
   inkscape:export-xdpi="90"
   inkscape:export-ydpi="90"><metadata
     id="metadata9"><rdf:RDF><cc:Work
         rdf:about=""><dc:format>image/svg+xml</dc:format><dc:type
           rdf:resource="http://purl.org/dc/dcmitype/StillImage" /></cc:Work></rdf:RDF></metadata><defs
     id="defs7" /><sodipodi:namedview
     pagecolor="#ffffff"
     bordercolor="#666666"
     borderopacity="1"
     objecttolerance="10"
     gridtolerance="10"
     guidetolerance="10"
     inkscape:pageopacity="0"
     inkscape:pageshadow="2"
     inkscape:window-width="640"
     inkscape:window-height="480"
     id="namedview5"
     showgrid="false"
     inkscape:zoom="2.36"
     inkscape:cx="50"
     inkscape:cy="50"
     inkscape:window-x="66"
     inkscape:window-y="29"
     inkscape:window-maximized="0"
     inkscape:current-layer="Layer_1" /><path
     d="m 256,64 c -70.688,0 -128,57.313 -128,128 0,64 64,129 64,192 l 128,0 C 320,319 384,256 384,192 384,121.313 326.688,64 256,64 z m 64,400 c 0,8.844 -7.156,16 -16,16 l -2.938,0 c -6.594,18.625 -24.188,32 -45.063,32 -20.875,0 -38.469,-13.375 -45.063,-32 L 208,480 c -8.844,0 -16,-7.156 -16,-16 0,-8.844 7.156,-16 16,-16 l 96,0 c 8.844,0 16,7.156 16,16 z m 0,-48 c 0,8.844 -7.156,16 -16,16 l -96,0 c -8.844,0 -16,-7.156 -16,-16 0,-8.844 7.156,-16 16,-16 l 96,0 c 8.844,0 16,7.156 16,16 z M 97.719,82.125 126.532,98.781 c -6.25,8.656 -11.656,17.844 -16.094,27.656 L 81.719,109.874 z M 256,32 c -5.5,0 -10.656,1.063 -16,1.625 L 240,0 l 32,0 0,33.625 C 266.656,33.063 261.5,32 256,32 z m -93.219,30.531 -16.656,-28.813 27.75,-16 16.563,28.719 c -9.813,4.438 -19,9.844 -27.657,16.094 z m 238.813,63.907 c -4.438,-9.813 -9.875,-19 -16.125,-27.656 l 28.813,-16.656 16,27.75 z M 349.219,62.5 C 340.594,56.281 331.375,50.875 321.594,46.437 l 16.563,-28.719 27.688,16 z M 97.688,208 64,208 l 0,-32 33.625,0 C 97.063,181.344 96,186.5 96,192 c 0,5.438 1.063,10.688 1.688,16 z M 448,176 l 0,32 -33.688,0 c 0.625,-5.313 1.688,-10.563 1.688,-16 0,-5.5 -1.063,-10.656 -1.625,-16 z m -46.781,81.375 29.063,16.75 -16,27.719 -26.188,-15.125 c 4.719,-9.656 9.094,-19.406 13.125,-29.344 z m -290.563,0.063 c 3.969,9.938 8.344,19.75 13.031,29.438 l -25.969,14.969 -16,-27.719 z"
     id="path3"
     inkscape:connector-curvature="0"
     sodipodi:nodetypes="ssccsssscscsssssssssssscccccsccccscccccccccccccccccccsccccscccccccccccc"
     inkscape:export-filename="/media/xisberto/xisberto/android/LedAssist/app/src/main/led-off.png"
     inkscape:export-xdpi="90"
     inkscape:export-ydpi="90" /></svg>