<?xml version="1.0" encoding="UTF-8" standalone="no"?>
<!-- Created with Inkscape (http://www.inkscape.org/) -->

<svg
   xmlns:dc="http://purl.org/dc/elements/1.1/"
   xmlns:cc="http://creativecommons.org/ns#"
   xmlns:rdf="http://www.w3.org/1999/02/22-rdf-syntax-ns#"
   xmlns:svg="http://www.w3.org/2000/svg"
   xmlns="http://www.w3.org/2000/svg"
   xmlns:sodipodi="http://sodipodi.sourceforge.net/DTD/sodipodi-0.dtd"
   xmlns:inkscape="http://www.inkscape.org/namespaces/inkscape"
   width="512"
   height="512"
   id="svg2991"
   version="1.1"
   inkscape:version="0.48.4 r9939"
   sodipodi:docname="launcher.svg"
   inkscape:export-filename="/media/00790186373/xisberto/android/LedAssist/app/src/main/launcher.png"
   inkscape:export-xdpi="90"
   inkscape:export-ydpi="90">
  <defs
     id="defs2993">
    <filter
       inkscape:collect="always"
       id="filter3812">
      <feGaussianBlur
         inkscape:collect="always"
         stdDeviation="1.226028"
         id="feGaussianBlur3814" />
    </filter>
  </defs>
  <sodipodi:namedview
     id="base"
     pagecolor="#ffffff"
     bordercolor="#666666"
     borderopacity="1.0"
     inkscape:pageopacity="0.0"
     inkscape:pageshadow="2"
     inkscape:zoom="0.98055827"
     inkscape:cx="199.26209"
     inkscape:cy="213.5737"
     inkscape:document-units="px"
     inkscape:current-layer="layer1"
     showgrid="false"
     inkscape:window-width="1535"
     inkscape:window-height="876"
     inkscape:window-x="65"
     inkscape:window-y="24"
     inkscape:window-maximized="1" />
  <metadata
     id="metadata2996">
    <rdf:RDF>
      <cc:Work
         rdf:about="">
        <dc:format>image/svg+xml</dc:format>
        <dc:type
           rdf:resource="http://purl.org/dc/dcmitype/StillImage" />
        <dc:title />
      </cc:Work>
    </rdf:RDF>
  </metadata>
  <g
     inkscape:label="Camada 1"
     inkscape:groupmode="layer"
     id="layer1"
     transform="translate(0,-540.36218)">
    <path
       sodipodi:type="arc"
       style="fill:#360098;fill-opacity:1;stroke:none"
       id="path3032"
       sodipodi:cx="64.540848"
       sodipodi:cy="63.639435"
       sodipodi:rx="63.278873"
       sodipodi:ry="63.278873"
       d="m 127.81972,63.639435 a 63.278873,63.278873 0 1 1 -126.5577457,0 63.278873,63.278873 0 1 1 126.5577457,0 z"
       transform="matrix(3.783756,0,0,3.7837561,11.793182,555.56603)" />
    <path
       sodipodi:type="arc"
       style="fill:none;stroke:#000000;stroke-width:5.05952883;stroke-miterlimit:4;stroke-opacity:1;stroke-dasharray:none;filter:url(#filter3812)"
       id="path3778"
       sodipodi:cx="64.540848"
       sodipodi:cy="63.639435"
       sodipodi:rx="63.278873"
       sodipodi:ry="63.278873"
       d="m 127.81972,63.639435 a 63.278873,63.278873 0 1 1 -126.5577457,0 63.278873,63.278873 0 1 1 126.5577457,0 z"
       transform="matrix(3.7235765,0,0,3.7235765,15.677215,559.39588)" />
    <path
       style="fill:#ececec;fill-opacity:1;fill-rule:evenodd;stroke:none"
       d="m 255.99999,693.33505 c -32.49856,0.37489 -76.45929,18.38679 -79.2093,58.22868 -2.86369,41.48886 0,83.17515 0,124.76272 -8.46547,0 -16.93093,0 -25.39639,0 0,16.1074 0,32.21479 0,48.3222 18.48674,0 36.97349,0 55.46023,0 0,14.78007 0,29.56016 0,44.34023 8.96883,0 17.93764,0 26.90646,0 0,-14.78007 0,-29.56016 0,-44.34023 14.826,0 29.65201,0 44.47801,0 0,11.62272 0,23.24543 0,34.86815 8.96882,0 17.93763,0 26.90646,0 0,-11.62272 0,-23.24543 0,-34.86815 18.48675,0 36.97349,0 55.46025,0 0,-16.10741 0,-32.2148 0,-48.3222 -8.46547,0 -16.93094,0 -25.39642,0 0,-42.51039 3.77815,-85.18901 0,-127.53117 -3.30266,-37.0133 -46.71074,-55.83512 -79.2093,-55.46023 z"
       id="rect2996"
       inkscape:connector-curvature="0"
       sodipodi:nodetypes="zsccccccccccccccsz" />
    <g
       id="g3843"
       transform="matrix(4.3928902,0,0,4.3928902,-25.551383,-3545.7479)"
       style="fill:#ececec;fill-opacity:1">
      <rect
         y="949.42133"
         x="62.109417"
         height="9.7352133"
         width="3.966197"
         id="rect3787"
         style="fill:#ececec;fill-opacity:1;stroke:none" />
      <rect
         transform="matrix(0.8660254,-0.5,0.5,0.8660254,0,0)"
         style="fill:#ececec;fill-opacity:1;stroke:none"
         id="rect3789"
         width="3.966197"
         height="9.7352133"
         x="-438.48758"
         y="849.61407" />
      <rect
         y="513.44049"
         x="-822.55841"
         height="9.7352133"
         width="3.966197"
         id="rect3795"
         style="fill:#ececec;fill-opacity:1;stroke:none"
         transform="matrix(0.5,-0.8660254,0.8660254,0.5,0,0)" />
      <rect
         transform="matrix(0,-1,1,0,0,0)"
         style="fill:#ececec;fill-opacity:1;stroke:none"
         id="rect3797"
         width="3.966197"
         height="9.7352133"
         x="-986.01843"
         y="29.025393" />
      <rect
         y="785.52161"
         x="-549.49908"
         height="9.7352133"
         width="3.966197"
         id="rect3802"
         style="fill:#ececec;fill-opacity:1;stroke:none"
         transform="matrix(-0.8660254,-0.5,-0.5,0.8660254,0,0)" />
      <rect
         transform="matrix(-0.5,-0.8660254,-0.8660254,0.5,0,0)"
         style="fill:#ececec;fill-opacity:1;stroke:none"
         id="rect3804"
         width="3.966197"
         height="9.7352133"
         x="-886.65088"
         y="402.42899" />
      <rect
         y="-99.159637"
         x="-986.01843"
         height="9.7352133"
         width="3.966197"
         id="rect3806"
         style="fill:#ececec;fill-opacity:1;stroke:none"
         transform="matrix(0,-1,-1,0,0,0)" />
    </g>
    <path
       transform="matrix(3.7235765,0,0,3.7235765,15.677215,559.39588)"
       d="m 127.81972,63.639435 a 63.278873,63.278873 0 1 1 -126.5577457,0 63.278873,63.278873 0 1 1 126.5577457,0 z"
       sodipodi:ry="63.278873"
       sodipodi:rx="63.278873"
       sodipodi:cy="63.639435"
       sodipodi:cx="64.540848"
       id="path3764"
       style="fill:none;stroke:#e4e4e4;stroke-width:5.05952883;stroke-miterlimit:4;stroke-opacity:1;stroke-dasharray:none"
       sodipodi:type="arc" />
  </g>
</svg>
