<?xml version="1.0" encoding="UTF-8" standalone="no"?>
<!-- Created with Inkscape (http://www.inkscape.org/) -->

<svg
   xmlns:dc="http://purl.org/dc/elements/1.1/"
   xmlns:cc="http://creativecommons.org/ns#"
   xmlns:rdf="http://www.w3.org/1999/02/22-rdf-syntax-ns#"
   xmlns:svg="http://www.w3.org/2000/svg"
   xmlns="http://www.w3.org/2000/svg"
   xmlns:sodipodi="http://sodipodi.sourceforge.net/DTD/sodipodi-0.dtd"
   xmlns:inkscape="http://www.inkscape.org/namespaces/inkscape"
   width="512"
   height="512"
   id="svg2991"
   version="1.1"
   inkscape:version="0.48.4 r9939"
   sodipodi:docname="launcher.svg"
   inkscape:export-filename="/media/xisberto/xisberto/android/LedAssist/app/src/main/launcher.png"
   inkscape:export-xdpi="90"
   inkscape:export-ydpi="90">
  <defs
     id="defs2993">
    <filter
       inkscape:collect="always"
       id="filter3812">
      <feGaussianBlur
         inkscape:collect="always"
         stdDeviation="1.226028"
         id="feGaussianBlur3814" />
    </filter>
  </defs>
  <sodipodi:namedview
     id="base"
     pagecolor="#ffffff"
     bordercolor="#666666"
     borderopacity="1.0"
     inkscape:pageopacity="0.0"
     inkscape:pageshadow="2"
     inkscape:zoom="0.49027914"
     inkscape:cx="227.1325"
     inkscape:cy="181.03955"
     inkscape:document-units="px"
     inkscape:current-layer="layer1"
     showgrid="false"
     inkscape:window-width="1309"
     inkscape:window-height="747"
     inkscape:window-x="57"
     inkscape:window-y="21"
     inkscape:window-maximized="1" />
  <metadata
     id="metadata2996">
    <rdf:RDF>
      <cc:Work
         rdf:about="">
        <dc:format>image/svg+xml</dc:format>
        <dc:type
           rdf:resource="http://purl.org/dc/dcmitype/StillImage" />
        <dc:title></dc:title>
      </cc:Work>
    </rdf:RDF>
  </metadata>
  <g
     inkscape:label="Camada 1"
     inkscape:groupmode="layer"
     id="layer1"
     transform="translate(0,-540.36218)">
    <path
       sodipodi:type="arc"
       style="fill:#360098;fill-opacity:1;stroke:none"
       id="path3032"
       sodipodi:cx="64.540848"
       sodipodi:cy="63.639435"
       sodipodi:rx="63.278873"
       sodipodi:ry="63.278873"
       d="m 127.81972,63.639435 c 0,34.947957 -28.330915,63.278875 -63.278872,63.278875 -34.947957,0 -63.2788737,-28.330918 -63.2788737,-63.278875 0,-34.947957 28.3309167,-63.27887363 63.2788737,-63.27887363 34.947957,0 63.278872,28.33091663 63.278872,63.27887363 z"
       transform="matrix(3.783756,0,0,3.7837561,11.793182,555.56603)" />
    <path
       sodipodi:type="arc"
       style="fill:none;stroke:#000000;stroke-width:5.05952883;stroke-miterlimit:4;stroke-opacity:1;stroke-dasharray:none;filter:url(#filter3812)"
       id="path3778"
       sodipodi:cx="64.540848"
       sodipodi:cy="63.639435"
       sodipodi:rx="63.278873"
       sodipodi:ry="63.278873"
       d="m 127.81972,63.639435 c 0,34.947957 -28.330915,63.278875 -63.278872,63.278875 -34.947957,0 -63.2788737,-28.330918 -63.2788737,-63.278875 0,-34.947957 28.3309167,-63.27887363 63.2788737,-63.27887363 34.947957,0 63.278872,28.33091663 63.278872,63.27887363 z"
       transform="matrix(3.7235765,0,0,3.7235765,15.677215,559.39588)" />
    <path
       transform="matrix(3.7235765,0,0,3.7235765,15.677215,559.39588)"
       d="m 127.81972,63.639435 c 0,34.947957 -28.330915,63.278875 -63.278872,63.278875 -34.947957,0 -63.2788737,-28.330918 -63.2788737,-63.278875 0,-34.947957 28.3309167,-63.27887363 63.2788737,-63.27887363 34.947957,0 63.278872,28.33091663 63.278872,63.27887363 z"
       sodipodi:ry="63.278873"
       sodipodi:rx="63.278873"
       sodipodi:cy="63.639435"
       sodipodi:cx="64.540848"
       id="path3764"
       style="fill:none;stroke:#e4e4e4;stroke-width:5.05952883;stroke-miterlimit:4;stroke-opacity:1;stroke-dasharray:none"
       sodipodi:type="arc" />
    <path
       id="path2997"
       d="m 256,668.22501 c -47.17581,0 -85.42474,38.24961 -85.42474,85.42485 0,42.71237 42.71237,86.09208 42.71237,128.13711 l 85.42474,0 c 0,-43.37971 42.71237,-85.42474 42.71237,-128.13711 0,-47.17524 -38.24893,-85.42485 -85.42474,-85.42485 z m 42.71237,266.95243 c 0,5.90217 -4.77579,10.67809 -10.67809,10.67809 l -1.96077,0 c -4.40071,12.42999 -16.14261,21.35619 -30.07419,21.35619 -13.93158,0 -25.67349,-8.9262 -30.07419,-21.35619 l -1.95941,0 c -5.90234,0 -10.67809,-4.77592 -10.67809,-10.67809 0,-5.90251 4.77575,-10.67809 10.67809,-10.67809 l 64.06856,0 c 5.9023,0 10.67809,4.77558 10.67809,10.67809 z m 0,-32.03428 c 0,5.90217 -4.77579,10.67809 -10.67809,10.67809 l -64.06856,0 c -5.90234,0 -10.67809,-4.77592 -10.67809,-10.67809 0,-5.90251 4.77575,-10.67809 10.67809,-10.67809 l 64.06856,0 c 5.9023,0 10.67809,4.77558 10.67809,10.67809 z M 150.36629,680.32129 169.59554,691.4372 c -4.17116,5.77684 -7.77899,11.90873 -10.74083,18.45708 L 139.6882,698.84045 z M 256,646.86883 c -3.6706,0 -7.11161,0.70943 -10.67809,1.08448 l 0,-22.44067 21.35618,0 0,22.44067 C 263.11161,647.57826 259.6706,646.86883 256,646.86883 z m -62.21259,20.37581 -11.11587,-19.22924 18.51981,-10.6781 11.05382,19.16651 c -6.549,2.96185 -12.68024,6.56968 -18.45776,10.74083 z m 159.3792,42.65029 c -2.96181,-6.549 -6.59038,-12.68021 -10.7615,-18.45708 l 19.22925,-11.11587 10.67809,18.51981 z m -34.95406,-42.67099 c -5.75616,-4.15045 -11.90872,-7.75828 -18.4364,-10.72013 l 11.05386,-19.16651 18.47843,10.6781 z m -167.86697,97.10401 -22.4827,0 0,-21.35618 22.44067,0 c -0.37508,3.56631 -1.08448,7.00756 -1.08448,10.67809 0,3.62918 0.7094,7.13296 1.12651,10.67809 z m 233.79154,-21.35618 0,21.35618 -22.48274,0 c 0.41711,-3.54581 1.12655,-7.04959 1.12655,-10.67809 0,-3.67053 -0.70944,-7.11178 -1.08452,-10.67809 z m -31.22077,54.30792 19.3961,11.17868 -10.67809,18.49924 -17.47736,-10.09412 c 3.14937,-6.44445 6.06916,-12.95142 8.75935,-19.5838 z m -193.91615,0.041 c 2.64882,6.63237 5.5686,13.18103 8.69662,19.64632 l -17.33121,9.99025 -10.6781,-18.49924 z"
       inkscape:connector-curvature="0"
       style="fill:#ffffff;fill-opacity:1"
       sodipodi:nodetypes="ssccsssscscsssssssssssscccccsccccscccccccccccccccccccsccccscccccccccccc" />
  </g>
</svg>
