<?xml version="1.0" encoding="UTF-8" standalone="no"?>
<!-- Created with Inkscape (http://www.inkscape.org/) -->

<svg
   xmlns:dc="http://purl.org/dc/elements/1.1/"
   xmlns:cc="http://creativecommons.org/ns#"
   xmlns:rdf="http://www.w3.org/1999/02/22-rdf-syntax-ns#"
   xmlns:svg="http://www.w3.org/2000/svg"
   xmlns="http://www.w3.org/2000/svg"
   xmlns:sodipodi="http://sodipodi.sourceforge.net/DTD/sodipodi-0.dtd"
   xmlns:inkscape="http://www.inkscape.org/namespaces/inkscape"
   width="128"
   height="128"
   id="svg2"
   version="1.1"
   inkscape:version="0.48.4 r9939"
   sodipodi:docname="led.svg"
   inkscape:export-filename="/home/00790186373/AndroidStudioProjects/SelectiveSilence/app/src/main/led-off.png"
   inkscape:export-xdpi="90"
   inkscape:export-ydpi="90">
  <defs
     id="defs4" />
  <sodipodi:namedview
     id="base"
     pagecolor="#ffffff"
     bordercolor="#666666"
     borderopacity="1.0"
     inkscape:pageopacity="0.0"
     inkscape:pageshadow="2"
     inkscape:zoom="5.546875"
     inkscape:cx="52.011268"
     inkscape:cy="64"
     inkscape:document-units="px"
     inkscape:current-layer="layer1"
     showgrid="false"
     inkscape:window-width="1535"
     inkscape:window-height="876"
     inkscape:window-x="65"
     inkscape:window-y="24"
     inkscape:window-maximized="1" />
  <metadata
     id="metadata7">
    <rdf:RDF>
      <cc:Work
         rdf:about="">
        <dc:format>image/svg+xml</dc:format>
        <dc:type
           rdf:resource="http://purl.org/dc/dcmitype/StillImage" />
        <dc:title />
      </cc:Work>
    </rdf:RDF>
  </metadata>
  <g
     inkscape:label="Camada 1"
     inkscape:groupmode="layer"
     id="layer1"
     transform="translate(0,-924.3622)">
    <path
       style="fill:#000000;fill-opacity:1;fill-rule:evenodd;stroke:none"
       d="m 63.942073,950.21532 c -15.886651,0 -28.788387,9.17544 -29.016417,20.53001 l -0.304901,0 0,47.20887 -9.401116,0 0,17.8876 20.530004,0 0,16.4137 9.960101,0 0,-16.4137 16.464657,0 0,12.9074 9.960101,0 0,-12.9074 20.530008,0 0,-17.8876 -9.401119,0 0,-47.20887 -0.304901,0 C 92.73046,959.39076 79.828723,950.21532 63.942073,950.21532 z"
       id="rect2996"
       inkscape:connector-curvature="0" />
    <g
       id="g3843"
       transform="matrix(1.626139,0,0,1.626139,-40.13082,-618.98799)">
      <rect
         y="949.42133"
         x="62.109417"
         height="9.7352133"
         width="3.966197"
         id="rect3787"
         style="fill:#000000;fill-opacity:1;stroke:none" />
      <rect
         transform="matrix(0.8660254,-0.5,0.5,0.8660254,0,0)"
         style="fill:#000000;fill-opacity:1;stroke:none"
         id="rect3789"
         width="3.966197"
         height="9.7352133"
         x="-438.48758"
         y="849.61407" />
      <rect
         y="513.44049"
         x="-822.55841"
         height="9.7352133"
         width="3.966197"
         id="rect3795"
         style="fill:#000000;fill-opacity:1;stroke:none"
         transform="matrix(0.5,-0.8660254,0.8660254,0.5,0,0)" />
      <rect
         transform="matrix(0,-1,1,0,0,0)"
         style="fill:#000000;fill-opacity:1;stroke:none"
         id="rect3797"
         width="3.966197"
         height="9.7352133"
         x="-986.01843"
         y="29.025393" />
      <rect
         y="785.52161"
         x="-549.49908"
         height="9.7352133"
         width="3.966197"
         id="rect3802"
         style="fill:#000000;fill-opacity:1;stroke:none"
         transform="matrix(-0.8660254,-0.5,-0.5,0.8660254,0,0)" />
      <rect
         transform="matrix(-0.5,-0.8660254,-0.8660254,0.5,0,0)"
         style="fill:#000000;fill-opacity:1;stroke:none"
         id="rect3804"
         width="3.966197"
         height="9.7352133"
         x="-886.65088"
         y="402.42899" />
      <rect
         y="-99.159637"
         x="-986.01843"
         height="9.7352133"
         width="3.966197"
         id="rect3806"
         style="fill:#000000;fill-opacity:1;stroke:none"
         transform="matrix(0,-1,-1,0,0,0)" />
    </g>
  </g>
</svg>
